<?xml version="1.0" encoding="UTF-8" standalone="no"?>
<!DOCTYPE svg PUBLIC "-//W3C//DTD SVG 1.1//EN" "http://www.w3.org/Graphics/SVG/1.1/DTD/svg11.dtd">
<svg width="100%" height="100%" viewBox="0 0 418 561" version="1.1" xmlns="http://www.w3.org/2000/svg" xmlns:xlink="http://www.w3.org/1999/xlink" xml:space="preserve" xmlns:serif="http://www.serif.com/" style="fill-rule:evenodd;clip-rule:evenodd;stroke-linecap:round;stroke-linejoin:round;stroke-miterlimit:1.5;">
    <g transform="matrix(1,0,0,1,-257.53,-1363.05)">
        <g transform="matrix(1,0,0,1,-25.3712,971.405)">
            <g transform="matrix(0.87462,0.48481,-0.48481,0.87462,301.887,-17.5603)">
                <g transform="matrix(0.314648,8.32667e-17,8.32667e-17,-0.314648,322.313,1048.65)">
                    <path d="M-14.888,1389.91L-14.888,2357.75C-14.888,2386.06 5.326,2413.62 43.112,2437.14C123.201,2487.01 284.461,2521.6 470.289,2521.6C656.116,2521.6 817.377,2487.01 897.466,2437.14C935.251,2413.62 955.465,2386.06 955.465,2357.75L955.465,1389.91C955.465,1387.89 954.885,1385.9 953.792,1384.2L479.209,643.36C477.261,640.32 473.899,638.481 470.289,638.481C466.678,638.481 463.316,640.32 461.368,643.36L-13.215,1384.2C-14.307,1385.9 -14.888,1387.89 -14.888,1389.91Z" style="fill:white;"/>
                </g>
                <g transform="matrix(0.314648,6.16298e-33,6.16298e-33,-0.314648,322.313,1048.65)">
                    <path d="M578.773,838.063L470.289,668.714L361.803,838.063C389.897,829.075 428.122,823.363 470.289,823.363C512.455,823.363 550.681,829.075 578.773,838.063Z" style="fill:rgb(0,18,25);"/>
                </g>
                <g transform="matrix(1,0,0,-1,-1.42109e-13,1493.5)">
                    <path d="M429.629,718.725L343.668,852.913C370.765,839.569 417.359,830.624 470.289,830.624C523.219,830.624 569.813,839.569 596.908,852.912L510.948,718.725C503.825,713.793 488.264,710.581 470.289,710.581C452.313,710.581 436.753,713.793 429.631,718.724L429.629,718.725Z" style="fill:rgb(233,216,166);"/>
                </g>
                <path d="M616.282,525.338L616.282,611.317C616.282,615.83 613.867,620.098 609.677,624.158C604.968,628.722 598.079,632.935 589.445,636.738C562.568,648.574 519.183,656.205 470.289,656.205C421.395,656.205 378.01,648.574 351.133,636.738C342.498,632.935 335.609,628.722 330.9,624.158C326.71,620.098 324.295,615.83 324.295,611.317L324.295,525.338C327.231,528.648 331.11,531.821 335.878,534.79C361.078,550.48 411.818,561.362 470.289,561.362C528.759,561.362 579.499,550.48 604.699,534.79C609.467,531.821 613.346,528.648 616.282,525.338Z" style="fill:rgb(148,210,189);"/>
                <path d="M616.282,423.829L616.282,509.808C616.282,514.32 613.867,518.589 609.677,522.649C604.968,527.213 598.079,531.425 589.445,535.228C562.568,547.065 519.183,554.695 470.289,554.695C421.395,554.695 378.01,547.065 351.133,535.228C342.498,531.425 335.609,527.213 330.9,522.649C326.71,518.589 324.295,514.32 324.295,509.808L324.295,423.829C327.232,427.139 331.11,430.312 335.878,433.281C361.078,448.971 411.818,459.853 470.289,459.853C528.759,459.853 579.499,448.971 604.699,433.281C609.467,430.312 613.346,427.139 616.282,423.829Z" style="fill:rgb(10,147,150);"/>
                <path d="M324.295,408.299L324.295,322.319C327.232,325.63 331.11,328.803 335.878,331.771C361.078,347.461 411.818,358.343 470.289,358.343C528.759,358.343 579.499,347.461 604.699,331.771C609.467,328.803 613.345,325.63 616.281,322.32L616.282,408.299C616.282,412.811 613.867,417.079 609.677,421.14C604.968,425.704 598.079,429.916 589.445,433.719C562.568,445.556 519.183,453.186 470.289,453.186C421.395,453.186 378.01,445.556 351.133,433.719C342.498,429.916 335.609,425.704 330.9,421.14C326.71,417.079 324.295,412.811 324.295,408.299Z" style="fill:rgb(0,95,115);"/>
                <path d="M324.295,306.789C324.295,302.277 326.711,298.008 330.9,293.948C335.609,289.384 342.498,285.172 351.133,281.369C378.01,269.532 421.395,261.902 470.289,261.902C519.183,261.902 562.568,269.532 589.445,281.369C598.079,285.172 604.968,289.384 609.677,293.948C613.867,298.008 616.282,302.277 616.282,306.789C616.282,311.302 613.867,315.57 609.677,319.63C604.968,324.194 598.079,328.407 589.445,332.21C562.568,344.047 519.183,351.677 470.289,351.677C421.395,351.677 378.01,344.047 351.133,332.21C342.498,328.407 335.609,324.194 330.9,319.63C326.711,315.57 324.295,311.302 324.295,306.789Z" style="fill:rgb(0,95,115);"/>
                <g>
                    <g transform="matrix(1,0,0,1,0,20)">
                        <path d="M374.722,343.831C361.401,340.243 350.042,335.919 341.245,331.055" style="fill:none;stroke:white;stroke-width:6.67px;"/>
                    </g>
                    <g transform="matrix(1,0,0,1,0,121.509)">
                        <path d="M374.722,343.831C361.401,340.243 350.042,335.919 341.245,331.055" style="fill:none;stroke:white;stroke-width:6.67px;"/>
                    </g>
                    <g transform="matrix(1,0,0,1,0,223.019)">
                        <path d="M374.722,343.831C361.401,340.243 350.042,335.919 341.245,331.055" style="fill:none;stroke:white;stroke-width:6.67px;"/>
                    </g>
                </g>
            </g>
        </g>
    </g>
</svg>
